<svg viewBox="0 0 256 256" xmlns="http://www.w3.org/2000/svg"><path d="m232 48v40a8 8 0 0 1 -16 0v-32h-32a8 8 0 0 1 0-16h40a8.00008 8.00008 0 0 1 8 8zm-160 152h-32v-32a8 8 0 0 0 -16 0v40a8.00008 8.00008 0 0 0 8 8h40a8 8 0 0 0 0-16zm152-40a8.00008 8.00008 0 0 0 -8 8v32h-32a8 8 0 0 0 0 16h40a8.00008 8.00008 0 0 0 8-8v-40a8.00008 8.00008 0 0 0 -8-8zm-192-64a8.00008 8.00008 0 0 0 8-8v-32h32a8 8 0 0 0 0-16h-40a8.00008 8.00008 0 0 0 -8 8v40a8.00008 8.00008 0 0 0 8 8zm48-16a8.00008 8.00008 0 0 0 -8 8v80a8 8 0 0 0 16 0v-80a8.00008 8.00008 0 0 0 -8-8zm104 88v-80a8 8 0 0 0 -16 0v80a8 8 0 0 0 16 0zm-40-88a8.00008 8.00008 0 0 0 -8 8v80a8 8 0 0 0 16 0v-80a8.00008 8.00008 0 0 0 -8-8zm-32 0a8.00008 8.00008 0 0 0 -8 8v80a8 8 0 0 0 16 0v-80a8.00008 8.00008 0 0 0 -8-8z"/></svg>